<svg width="384" height="280" viewBox="0 0 384 280" fill="none" xmlns="http://www.w3.org/2000/svg">
<g clip-path="url(#clip0_46_25878)">
<mask id="mask0_46_25878" style="mask-type:alpha" maskUnits="userSpaceOnUse" x="73" y="83" width="204" height="137">
<rect x="73.4386" y="83.1705" width="202.618" height="136.276" rx="21.235" fill="white"/>
</mask>
<g mask="url(#mask0_46_25878)">
<rect x="73.4386" y="65.4746" width="201.733" height="141.567" rx="21.235" fill="#25282D"/>
<rect x="73.4386" y="65.4746" width="201.733" height="141.567" rx="21.235" fill="#25282D"/>
<rect x="73.4386" y="65.4746" width="201.733" height="141.567" rx="21.235" fill="white"/>
<path fill-rule="evenodd" clip-rule="evenodd" d="M98.6664 105.703C104.952 105.703 109.696 104.403 113.649 102.437C117.584 100.479 120.709 97.8728 123.741 95.3315L123.844 95.2455C129.863 90.2003 135.674 85.3293 147.332 85.3288C158.658 85.3284 164.433 89.9809 170.556 94.9136L170.556 94.9137L170.556 94.9139L170.78 95.0942L171.087 95.341C174.254 97.8885 177.578 100.492 181.817 102.447C186.069 104.408 191.211 105.703 198.024 105.703C204.838 105.703 209.753 104.408 213.677 102.435C217.588 100.469 220.469 97.8508 223.209 95.3043L223.537 94.9986C226.173 92.547 228.699 90.1967 231.985 88.4168C235.386 86.5751 239.636 85.3288 245.676 85.3288C252.58 85.3288 258.154 88.173 262.887 92.1167C267.159 95.6765 270.701 100.092 273.902 104.082C274.262 104.53 274.617 104.973 274.969 105.409C275.243 105.749 275.741 105.802 276.082 105.528C276.422 105.253 276.475 104.755 276.2 104.415C275.854 103.986 275.503 103.548 275.145 103.102L275.141 103.097L275.138 103.093L275.134 103.088L275.134 103.088C271.946 99.1125 268.302 94.5691 263.9 90.9009C258.98 86.8014 253.06 83.7463 245.676 83.7463C239.397 83.7463 234.884 85.0468 231.232 87.0253C227.764 88.9034 225.104 91.3784 222.499 93.803L222.131 94.1452C219.391 96.6923 216.655 99.1672 212.966 101.021C209.29 102.869 204.623 104.121 198.024 104.121C191.426 104.121 186.513 102.869 182.48 101.01C178.435 99.1444 175.244 96.654 172.079 94.1079C171.894 93.959 171.709 93.8101 171.524 93.6611L171.517 93.6557C165.37 88.702 159.219 83.7459 147.332 83.7463C135.098 83.7467 128.911 88.9325 122.855 94.0093L122.725 94.1186C119.68 96.6708 116.688 99.1576 112.944 101.02C109.216 102.874 104.715 104.121 98.6664 104.121C86.5967 104.121 78.0656 98.3033 72.2948 93.6652C71.9542 93.3914 71.4561 93.4456 71.1824 93.7862C70.9086 94.1268 70.9628 94.6249 71.3034 94.8987C77.1614 99.6069 86.0481 105.703 98.6664 105.703ZM98.6664 122.288C104.952 122.288 109.696 120.988 113.649 119.022C117.584 117.064 120.709 114.458 123.741 111.916L123.844 111.83C129.863 106.785 135.674 101.914 147.332 101.914C158.658 101.913 164.433 106.566 170.556 111.498C170.732 111.641 170.909 111.783 171.087 111.926C174.254 114.473 177.578 117.077 181.817 119.032C186.069 120.992 191.211 122.288 198.024 122.288C204.838 122.288 209.753 120.992 213.677 119.02C217.588 117.054 220.469 114.436 223.209 111.889L223.537 111.583C226.173 109.132 228.699 106.781 231.985 105.002C235.386 103.16 239.636 101.914 245.676 101.914C252.58 101.914 258.154 104.758 262.887 108.701C267.159 112.261 270.701 116.677 273.902 120.667L273.907 120.673L273.912 120.679C274.268 121.123 274.62 121.562 274.969 121.993C275.243 122.334 275.741 122.387 276.082 122.112C276.422 121.838 276.475 121.34 276.2 121C275.851 120.566 275.495 120.123 275.134 119.673L275.134 119.673C271.946 115.697 268.302 111.154 263.9 107.486C258.98 103.386 253.06 100.331 245.676 100.331C239.397 100.331 234.884 101.632 231.232 103.61C227.764 105.488 225.104 107.963 222.499 110.388L222.131 110.73C219.391 113.277 216.655 115.752 212.966 117.606C209.29 119.454 204.623 120.705 198.024 120.705C191.426 120.705 186.513 119.454 182.48 117.594C178.435 115.729 175.244 113.239 172.079 110.693C171.894 110.544 171.71 110.396 171.526 110.247L171.517 110.24C165.37 105.287 159.219 100.331 147.332 100.331C135.098 100.331 128.911 105.517 122.855 110.594L122.725 110.703C119.68 113.255 116.688 115.742 112.944 117.605C109.216 119.459 104.715 120.705 98.6664 120.705C86.5967 120.705 78.0656 114.888 72.2948 110.25C71.9542 109.976 71.4561 110.03 71.1824 110.371C70.9086 110.712 70.9628 111.21 71.3034 111.483C77.1614 116.192 86.0481 122.288 98.6664 122.288ZM113.649 134.601C109.696 136.567 104.952 137.867 98.6664 137.867C86.0481 137.867 77.1614 131.771 71.3034 127.062C70.9628 126.789 70.9086 126.29 71.1824 125.95C71.4561 125.609 71.9542 125.555 72.2948 125.829C78.0656 130.467 86.5967 136.284 98.6664 136.284C104.715 136.284 109.216 135.038 112.944 133.184C116.688 131.321 119.68 128.834 122.725 126.282L122.855 126.173C128.911 121.096 135.098 115.91 147.332 115.91C159.219 115.909 165.37 120.866 171.517 125.819L171.529 125.829C171.712 125.977 171.895 126.124 172.079 126.271C175.244 128.818 178.435 131.308 182.48 133.173C186.513 135.033 191.426 136.284 198.024 136.284C204.623 136.284 209.29 135.033 212.966 133.185C216.655 131.331 219.391 128.856 222.131 126.309L222.499 125.967C225.104 123.542 227.764 121.067 231.232 119.189C234.884 117.21 239.397 115.91 245.676 115.91C253.06 115.91 258.98 118.965 263.9 123.065C268.302 126.733 271.946 131.276 275.134 135.252L275.134 135.252C275.495 135.702 275.851 136.145 276.2 136.579C276.475 136.919 276.422 137.417 276.082 137.691C275.741 137.966 275.243 137.913 274.969 137.572C274.62 137.141 274.268 136.702 273.912 136.258L273.907 136.252L273.902 136.246C270.701 132.256 267.159 127.84 262.887 124.28C258.154 120.337 252.58 117.492 245.676 117.492C239.636 117.492 235.386 118.739 231.985 120.58C228.699 122.36 226.173 124.711 223.537 127.162L223.209 127.468C220.469 130.014 217.588 132.633 213.677 134.599C209.753 136.571 204.838 137.867 198.024 137.867C191.211 137.867 186.069 136.571 181.817 134.61C177.578 132.655 174.254 130.052 171.087 127.505L170.79 127.266L170.556 127.077C164.433 122.145 158.658 117.492 147.332 117.492C135.674 117.493 129.863 122.364 123.844 127.409L123.741 127.495C120.709 130.036 117.584 132.643 113.649 134.601ZM98.6664 154.451C104.952 154.451 109.696 153.151 113.649 151.185C117.584 149.228 120.709 146.621 123.741 144.08L123.844 143.994C129.863 138.949 135.674 134.078 147.332 134.077C158.658 134.077 164.433 138.729 170.556 143.662L170.908 143.945L171.087 144.089C174.254 146.637 177.578 149.24 181.817 151.195C186.069 153.156 191.211 154.451 198.024 154.451C204.838 154.451 209.753 153.156 213.677 151.184C217.588 149.218 220.469 146.599 223.209 144.053L223.537 143.747C226.173 141.295 228.699 138.945 231.985 137.165C235.386 135.323 239.636 134.077 245.676 134.077C252.58 134.077 258.154 136.921 262.887 140.865C267.159 144.425 270.701 148.84 273.902 152.83L273.902 152.83L273.907 152.836L273.912 152.842C274.268 153.287 274.62 153.725 274.969 154.157C275.243 154.497 275.741 154.55 276.082 154.276C276.422 154.002 276.475 153.503 276.2 153.163C275.851 152.73 275.495 152.287 275.134 151.836L275.134 151.836C271.946 147.861 268.302 143.317 263.9 139.649C258.98 135.55 253.06 132.495 245.676 132.495C239.397 132.495 234.884 133.795 231.232 135.774C227.764 137.652 225.104 140.127 222.499 142.551L222.131 142.893C219.391 145.441 216.655 147.915 212.966 149.77C209.29 151.618 204.623 152.869 198.024 152.869C191.426 152.869 186.513 151.618 182.48 149.758C178.435 147.893 175.244 145.402 172.079 142.856L171.801 142.632L171.517 142.404C165.37 137.45 159.219 132.494 147.332 132.495C135.098 132.495 128.911 137.681 122.855 142.758L122.725 142.867C119.68 145.419 116.688 147.906 112.944 149.768C109.216 151.622 104.715 152.869 98.6664 152.869C86.5967 152.869 78.0656 147.052 72.2948 142.413C71.9542 142.14 71.4561 142.194 71.1824 142.534C70.9086 142.875 70.9628 143.373 71.3034 143.647C77.1614 148.355 86.0481 154.451 98.6664 154.451ZM113.649 167.706C109.696 169.672 104.952 170.972 98.6664 170.972C86.0481 170.972 77.1614 164.876 71.3034 160.168C70.9628 159.894 70.9086 159.396 71.1824 159.055C71.4561 158.715 71.9542 158.66 72.2948 158.934C78.0656 163.572 86.5967 169.39 98.6664 169.39C104.715 169.39 109.216 168.143 112.944 166.289C116.688 164.427 119.68 161.94 122.725 159.388L122.855 159.278C128.911 154.202 135.098 149.016 147.332 149.015C159.219 149.015 165.37 153.971 171.517 158.925C171.704 159.075 171.891 159.226 172.079 159.377C175.244 161.923 178.435 164.413 182.48 166.279C186.513 168.138 191.426 169.39 198.024 169.39C204.623 169.39 209.29 168.138 212.966 166.29C216.655 164.436 219.391 161.961 222.131 159.414L222.499 159.072C225.104 156.647 227.764 154.172 231.232 152.294C234.884 150.316 239.397 149.015 245.676 149.015C253.06 149.015 258.98 152.07 263.9 156.17C268.302 159.838 271.946 164.381 275.134 168.357L275.134 168.357L275.138 168.361C275.497 168.81 275.852 169.252 276.2 169.684C276.475 170.024 276.422 170.522 276.082 170.797C275.741 171.071 275.243 171.018 274.969 170.678C274.618 170.243 274.263 169.801 273.904 169.353L273.902 169.351L273.902 169.351C270.701 165.361 267.159 160.945 262.887 157.386C258.154 153.442 252.58 150.598 245.676 150.598C239.636 150.598 235.386 151.844 231.985 153.686C228.699 155.466 226.173 157.816 223.537 160.268L223.209 160.573C220.469 163.12 217.588 165.738 213.677 167.704C209.753 169.677 204.838 170.972 198.024 170.972C191.211 170.972 186.069 169.677 181.817 167.716C177.578 165.761 174.254 163.158 171.087 160.61C170.909 160.467 170.732 160.325 170.556 160.183C164.433 155.25 158.658 150.597 147.332 150.598C135.674 150.598 129.863 155.469 123.844 160.514L123.741 160.601C120.709 163.142 117.584 165.748 113.649 167.706ZM98.6664 186.617C104.952 186.617 109.696 185.317 113.649 183.351C117.584 181.393 120.709 178.786 123.741 176.245L123.844 176.159C129.863 171.114 135.674 166.243 147.332 166.242C158.658 166.242 164.433 170.895 170.556 175.827C170.732 175.969 170.909 176.112 171.087 176.255C174.254 178.802 177.578 181.405 181.817 183.36C186.069 185.321 191.211 186.617 198.024 186.617C204.838 186.617 209.753 185.321 213.677 183.349C217.588 181.383 220.469 178.764 223.209 176.218L223.537 175.912C226.173 173.461 228.699 171.11 231.985 169.33C235.386 167.489 239.636 166.242 245.676 166.242C252.58 166.242 258.154 169.087 262.887 173.03C267.159 176.59 270.701 181.006 273.902 184.996L273.902 184.996C274.262 185.444 274.617 185.887 274.969 186.322C275.243 186.663 275.741 186.716 276.082 186.441C276.422 186.167 276.475 185.669 276.2 185.329C275.851 184.895 275.495 184.452 275.134 184.002L275.134 184.001C271.946 180.026 268.302 175.483 263.9 171.815C258.98 167.715 253.06 164.66 245.676 164.66C239.397 164.66 234.884 165.96 231.232 167.939C227.764 169.817 225.104 172.292 222.499 174.717L222.131 175.059C219.391 177.606 216.655 180.081 212.966 181.935C209.29 183.783 204.623 185.034 198.024 185.034C191.426 185.034 186.513 183.783 182.48 181.923C178.435 180.058 175.244 177.568 172.079 175.021L171.756 174.762L171.517 174.569C165.37 169.616 159.219 164.659 147.332 164.66C135.098 164.66 128.911 169.846 122.855 174.923L122.725 175.032C119.68 177.584 116.688 180.071 112.944 181.934C109.216 183.788 104.715 185.034 98.6664 185.034C86.5967 185.034 78.0656 179.217 72.2948 174.579C71.9542 174.305 71.4561 174.359 71.1824 174.7C70.9086 175.04 70.9628 175.539 71.3034 175.812C77.1614 180.521 86.0481 186.617 98.6664 186.617ZM113.649 199.87C109.696 201.836 104.952 203.136 98.6664 203.136C86.0481 203.136 77.1614 197.04 71.3034 192.331C70.9628 192.058 70.9086 191.559 71.1824 191.219C71.4561 190.878 71.9542 190.824 72.2948 191.098C78.0656 195.736 86.5967 201.553 98.6664 201.553C104.715 201.553 109.216 200.307 112.944 198.453C116.688 196.59 119.68 194.103 122.725 191.551L122.855 191.442C128.911 186.365 135.098 181.179 147.332 181.179C159.219 181.178 165.37 186.135 171.517 191.088C171.704 191.239 171.891 191.39 172.079 191.54C175.244 194.087 178.435 196.577 182.48 198.442C186.513 200.302 191.426 201.553 198.024 201.553C204.623 201.553 209.29 200.302 212.966 198.454C216.655 196.6 219.391 194.125 222.131 191.578L222.499 191.236C225.104 188.811 227.764 186.336 231.232 184.458C234.884 182.479 239.397 181.179 245.676 181.179C253.06 181.179 258.98 184.234 263.9 188.334C268.302 192.002 271.946 196.545 275.134 200.52L275.134 200.521C275.495 200.971 275.851 201.414 276.2 201.848C276.475 202.188 276.422 202.686 276.082 202.96C275.741 203.235 275.243 203.182 274.969 202.841C274.617 202.406 274.262 201.963 273.902 201.515L273.902 201.515C270.701 197.525 267.159 193.109 262.887 189.549C258.154 185.606 252.58 182.761 245.676 182.761C239.636 182.761 235.386 184.008 231.985 185.849C228.699 187.629 226.173 189.98 223.537 192.431L223.209 192.737C220.469 195.283 217.588 197.902 213.677 199.868C209.753 201.84 204.838 203.136 198.024 203.136C191.211 203.136 186.069 201.84 181.817 199.879C177.578 197.924 174.254 195.321 171.087 192.774C170.909 192.631 170.732 192.488 170.556 192.346C164.433 187.414 158.658 182.761 147.332 182.761C135.674 182.762 129.863 187.633 123.844 192.678L123.741 192.764C120.709 195.305 117.584 197.912 113.649 199.87ZM98.6664 218.78C104.952 218.78 109.696 217.48 113.649 215.514C117.584 213.557 120.709 210.95 123.741 208.409L123.844 208.323C129.863 203.278 135.674 198.406 147.332 198.406C158.658 198.406 164.433 203.058 170.556 207.991C170.732 208.133 170.909 208.276 171.087 208.418C174.254 210.966 177.578 213.569 181.817 215.524C186.069 217.485 191.211 218.78 198.024 218.78C204.838 218.78 209.753 217.485 213.677 215.513C217.588 213.547 220.469 210.928 223.209 208.382L223.537 208.076C226.173 205.624 228.699 203.274 231.985 201.494C235.386 199.652 239.636 198.406 245.676 198.406C252.58 198.406 258.154 201.25 262.887 205.194C267.159 208.754 270.701 213.169 273.902 217.159C274.262 217.608 274.617 218.05 274.969 218.486C275.243 218.826 275.741 218.879 276.082 218.605C276.422 218.331 276.475 217.832 276.2 217.492C275.851 217.059 275.495 216.616 275.134 216.165L275.134 216.165C271.946 212.19 268.302 207.646 263.9 203.978C258.98 199.879 253.06 196.823 245.676 196.823C239.397 196.823 234.884 198.124 231.232 200.102C227.764 201.981 225.104 204.456 222.499 206.88L222.131 207.222C219.391 209.769 216.655 212.244 212.966 214.099C209.29 215.946 204.623 217.198 198.024 217.198C191.426 217.198 186.513 215.947 182.48 214.087C178.435 212.222 175.244 209.731 172.079 207.185C171.891 207.034 171.704 206.884 171.517 206.733C165.37 201.779 159.219 196.823 147.332 196.823C135.098 196.824 128.911 202.01 122.855 207.086L122.725 207.196C119.68 209.748 116.688 212.235 112.944 214.097C109.216 215.951 104.715 217.198 98.6664 217.198C86.5967 217.198 78.0656 211.38 72.2948 206.742C71.9542 206.469 71.4561 206.523 71.1824 206.863C70.9086 207.204 70.9628 207.702 71.3034 207.976C77.1614 212.684 86.0481 218.78 98.6664 218.78ZM113.649 229.083C109.696 231.049 104.952 232.35 98.6664 232.35C86.0481 232.35 77.1614 226.253 71.3034 221.545C70.9628 221.271 70.9086 220.773 71.1824 220.433C71.4561 220.092 71.9542 220.038 72.2948 220.311C78.0656 224.95 86.5967 230.767 98.6664 230.767C104.715 230.767 109.216 229.52 112.944 227.666C116.688 225.804 119.68 223.317 122.725 220.765L122.855 220.656C128.911 215.579 135.098 210.393 147.332 210.393C159.219 210.392 165.37 215.348 171.517 220.302L171.557 220.334C171.731 220.474 171.904 220.614 172.079 220.754C175.244 223.3 178.435 225.791 182.48 227.656C186.513 229.516 191.426 230.767 198.024 230.767C204.623 230.767 209.29 229.516 212.966 227.668C216.655 225.814 219.391 223.339 222.131 220.791L222.499 220.449C225.104 218.025 227.764 215.55 231.232 213.672C234.884 211.693 239.397 210.393 245.676 210.393C253.06 210.393 258.98 213.448 263.9 217.547C268.302 221.215 271.946 225.759 275.134 229.734L275.134 229.734C275.495 230.185 275.851 230.628 276.2 231.061C276.475 231.401 276.422 231.9 276.082 232.174C275.741 232.448 275.243 232.395 274.969 232.055C274.617 231.62 274.262 231.177 273.902 230.729C270.701 226.739 267.159 222.323 262.887 218.763C258.154 214.819 252.58 211.975 245.676 211.975C239.636 211.975 235.386 213.221 231.985 215.063C228.699 216.843 226.173 219.193 223.537 221.645L223.209 221.951C220.469 224.497 217.588 227.116 213.677 229.082C209.753 231.054 204.838 232.35 198.024 232.35C191.211 232.35 186.069 231.054 181.817 229.093C177.578 227.138 174.254 224.535 171.087 221.987C170.909 221.845 170.732 221.702 170.556 221.56C164.433 216.627 158.658 211.975 147.332 211.975C135.674 211.976 129.863 216.847 123.844 221.892L123.741 221.978C120.709 224.519 117.584 227.126 113.649 229.083ZM98.6664 247.93C104.952 247.93 109.696 246.63 113.649 244.664C117.584 242.706 120.709 240.1 123.741 237.558L123.844 237.472C129.863 232.427 135.674 227.556 147.332 227.556C158.658 227.555 164.433 232.208 170.556 237.141C170.732 237.283 170.909 237.425 171.087 237.568C174.254 240.115 177.578 242.719 181.817 244.674C186.069 246.635 191.211 247.93 198.024 247.93C204.838 247.93 209.753 246.635 213.677 244.662C217.588 242.696 220.469 240.078 223.209 237.531L223.537 237.226C226.173 234.774 228.699 232.424 231.985 230.644C235.386 228.802 239.636 227.556 245.676 227.556C252.58 227.556 258.154 230.4 262.887 234.344C267.159 237.903 270.701 242.319 273.902 246.309L273.902 246.309L273.907 246.315C274.265 246.761 274.619 247.202 274.969 247.636C275.243 247.976 275.741 248.029 276.082 247.755C276.422 247.48 276.475 246.982 276.2 246.642C275.851 246.208 275.495 245.765 275.134 245.315C271.946 241.339 268.302 236.796 263.9 233.128C258.98 229.028 253.06 225.973 245.676 225.973C239.397 225.973 234.884 227.274 231.232 229.252C227.764 231.13 225.104 233.605 222.499 236.03L222.131 236.372C219.391 238.919 216.655 241.394 212.966 243.248C209.29 245.096 204.623 246.348 198.024 246.348C191.426 246.348 186.513 245.096 182.48 243.237C178.435 241.371 175.244 238.881 172.079 236.335C171.964 236.243 171.849 236.15 171.735 236.058L171.517 235.883C165.37 230.929 159.219 225.973 147.332 225.973C135.098 225.974 128.911 231.159 122.855 236.236L122.725 236.346C119.68 238.898 116.688 241.385 112.944 243.247C109.216 245.101 104.715 246.348 98.6664 246.348C86.5967 246.348 78.0656 240.53 72.2948 235.892C71.9542 235.618 71.4561 235.673 71.1824 236.013C70.9086 236.354 70.9628 236.852 71.3034 237.126C77.1614 241.834 86.0481 247.93 98.6664 247.93Z" fill="#CBCCC9"/>
</g>
</g>
<rect x="71.6685" y="54.8572" width="206.157" height="139.815" rx="19.4654" stroke="#888888" stroke-width="3.53917"/>
<path d="M336.882 31.6487H261.899C263.404 29.3093 273.029 23.1561 284.843 23.156C296.658 23.1559 298.572 16.0784 308.585 16.8734C319.501 17.8524 316.041 24.0929 324.536 24.4838C332.414 24.8463 336.043 29.0298 336.882 31.6487Z" fill="white" stroke="#B5BBC3" stroke-width="1.76959" stroke-linejoin="round"/>
<path d="M47.2543 117.664H7.07861C7.88479 116.411 13.042 113.114 19.3721 113.114C25.7023 113.114 26.728 109.322 32.093 109.748C37.9419 110.272 36.0879 113.616 40.6395 113.825C44.8604 114.02 46.8047 116.261 47.2543 117.664Z" fill="white" stroke="#B5BBC3" stroke-width="1.76959" stroke-linejoin="round"/>
<rect x="46.663" y="15.0413" width="67.0109" height="67.0109" rx="20.4577" fill="#BDBDBD"/>
<rect x="75.6979" y="23.8858" width="9.67878" height="32.7508" rx="4.83939" fill="white"/>
<circle cx="80.5745" cy="65.7794" r="4.77346" transform="rotate(103.735 80.5745 65.7794)" fill="white"/>
<path d="M177.999 198.593C179.741 197.722 182.747 196.917 185.673 197.962C191.668 200.103 194.204 209.03 199.783 210.766C207.778 213.253 215.599 209.305 224.139 206.928M236.767 205.452C240.411 205.791 243.407 206.929 246.003 208.545M273.318 230.248C289.858 231.963 297.745 222.128 310.308 223.307M338.468 236.442C352.235 237.85 358.174 225.326 374.113 231.858M253.892 215.701C256.514 218.721 258.941 221.913 261.735 224.545" stroke="#CBCCC9" stroke-width="1.76959" stroke-linecap="round"/>
<path opacity="0.7" d="M342.294 209.973C342.294 209.973 355.511 181.998 338.889 155.546C322.267 129.095 292.304 124.794 269.406 113.55C257.414 107.661 250.332 95.8559 240.083 87.6822C207.366 61.5582 155.716 82.0173 142.782 113.388C131.581 140.543 137.399 168.633 160.121 200.774C182.843 232.916 197.609 256.331 240.341 267.841C283.073 279.351 323.573 245.151 342.294 209.973Z" fill="#F2EEEE"/>
<path d="M207.572 160.526L225.484 185.514L332.311 206.726L363.514 185.207L320.936 179.52L254.535 165.378L207.572 160.526Z" fill="#D7D7D7"/>
<path d="M293.47 127.154L237.514 180.253L275.57 198.454L326.863 193.039L293.47 127.154Z" fill="#7B7777"/>
<path d="M293.338 127.063L285.543 160.526L294.405 127.32L293.338 127.063Z" fill="white"/>
<path d="M276.805 217.276C260.403 217.276 258.36 194.164 240.254 192.48C234.17 191.914 228.562 193.578 223.188 195.311L207.536 160.974L275.742 193.813L362.991 185.846L334.29 221.715C326.505 218.284 322.024 211.108 313.795 210.336C298.542 208.904 295.683 217.276 276.805 217.276Z" fill="#888A84"/>
<path d="M181.486 185.622C183.228 184.751 186.233 183.946 189.16 184.991C195.154 187.132 197.69 196.059 203.269 197.794C215.027 201.452 226.406 191.193 240.254 192.481C258.359 194.165 260.403 217.277 276.804 217.277C295.682 217.277 298.541 208.904 313.794 210.336C324.029 211.297 328.465 222.162 340.672 223.41C352.878 224.659 361.661 212.355 377.599 218.887" stroke="#CBCCC9" stroke-width="1.76959" stroke-linecap="round"/>
<path d="M348.933 80.6631L352.221 117.933L328.544 90.967C340.12 91.4932 346.96 84.317 348.933 80.6631Z" fill="#888A84"/>
<path d="M293.687 128.018L299.167 106.314L329.438 90.5778L348.664 80.5836L354.928 80.5836" stroke="black" stroke-width="1.10014" stroke-linecap="round"/>
<path d="M299.498 106.54L296.566 106.588L299.491 103.951L299.498 106.54Z" fill="white"/>
<path d="M348.931 80.9319L348.302 79.488L349.757 79.8583L348.931 80.9319Z" fill="white"/>
<defs>
<clipPath id="clip0_46_25878">
<rect x="73.438" y="56.6268" width="202.618" height="136.276" rx="17.6959" fill="white"/>
</clipPath>
</defs>
</svg>
